<svg xmlns="http://www.w3.org/2000/svg" viewBox="0 0 1465.31 521.48"><defs><style>.cls-1{fill:#2d132c}</style></defs><g id="Capa_2" data-name="Capa 2"><g id="Capa_1-2" data-name="Capa 1"><path class="cls-1" d="M260.74 0C116.74 0 0 116.74 0 260.74s116.74 260.74 260.74 260.74 260.74-116.73 260.74-260.74S404.75 0 260.74 0Zm-59.42 185.31h-60.93v81h-40.18V64.1h40.18v81h60.93ZM280 457.39h-40.22V64.1H280Zm141.31 0H320.16V417.2h101.12ZM607.21 163.36a42.11 42.11 0 0 1 15.44-12.62 43.43 43.43 0 0 1 19-4.41q15.5 0 22.93 8.2t7.42 23.59v78.47h-17.2v-78.06q0-9.63-4.51-14.15t-14.16-4.51a28.24 28.24 0 0 0-16.3 5.38 46.77 46.77 0 0 0-12.62 12.67v78.67H590V105.3l17.23-1.84ZM726.59 208.69q.42 12.1 4.72 20.15a28.36 28.36 0 0 0 11.28 11.9 31.8 31.8 0 0 0 15.59 3.85 44.21 44.21 0 0 0 14.72-2.36 61.61 61.61 0 0 0 14.1-7.39l8.11 11.39A61.94 61.94 0 0 1 758 259q-15.5 0-26.67-7a44.12 44.12 0 0 1-17-19.69q-5.8-12.72-5.8-29.54 0-16.31 5.85-29.13a47.24 47.24 0 0 1 16.51-20.05 43.16 43.16 0 0 1 24.82-7.23q13.54 0 23.44 6.36A40.67 40.67 0 0 1 794.34 171q5.28 11.94 5.28 28.25c0 3.15-.14 6.29-.41 9.44Zm9-39.44q-7.85 8.77-8.87 26.11H783q-.3-17-7.48-26t-19.59-8.93q-12.52.05-20.36 8.82ZM913.05 234.64l8.41 11.28a54.56 54.56 0 0 1-17 9.49A58 58 0 0 1 885 259q-15.9 0-27.33-6.88a44 44 0 0 1-17.39-19.48q-5.94-12.61-6-29.54a67.85 67.85 0 0 1 6.05-29.18 47.29 47.29 0 0 1 17.54-20.21q11.49-7.32 27.28-7.33a55.77 55.77 0 0 1 36.11 12.51l-8.41 11.49q-14-9.65-27.9-9.64a29.72 29.72 0 0 0-16.72 4.72q-7.23 4.66-11.23 14.2t-4 23.39q0 20.72 8.67 30.87T885 244.07q14.41 0 28.05-9.43ZM1051.41 293.82H948.84v-15.08h102.57Z"/><path class="cls-1" d="M1056.5 404.47q0 7.59 4.77 11.13t13.07 3.54a48.62 48.62 0 0 0 18.16-3.8l4.61 12.62a52.74 52.74 0 0 1-11.48 4 62.33 62.33 0 0 1-14.16 1.54 37.94 37.94 0 0 1-16.87-3.59 26.23 26.23 0 0 1-11.33-10.36 30.87 30.87 0 0 1-4-16V293.29h-33.13v-13.64h50.36ZM1204 327.7a41.86 41.86 0 0 1 15.64 19.49q5.28 12.66 5.29 29.89 0 16.73-5.39 29.44a44.13 44.13 0 0 1-15.85 19.85q-10.45 7.13-25.23 7.13-15 0-25.38-6.93a42.69 42.69 0 0 1-15.76-19.57q-5.34-12.61-5.34-29.74 0-16.82 5.39-29.54a43.63 43.63 0 0 1 15.89-19.72q10.52-7.08 25.39-7.08t25.35 6.78Zm-46.46 17.64q-7.08 10.41-7.08 32 0 21.22 7 31.64t21 10.41q14.05 0 21-10.41t7-31.85q0-21.33-7-31.74t-20.82-10.41q-14.05-.05-21.12 10.36ZM1338.8 335.55q9.18 14.67 9.18 41.53 0 16.73-4.62 29.39t-14 19.85q-9.37 7.17-23 7.18-17.85 0-28.51-12.52v51.49l-17.24 2.15V323.14h14.67l1.44 15.07a41.68 41.68 0 0 1 14.2-12.87 37.34 37.34 0 0 1 18-4.46q20.7 0 29.88 14.67Zm-49.13 4.1a48.07 48.07 0 0 0-11.84 12.41v53.54a31.39 31.39 0 0 0 10.71 9.95 28.22 28.22 0 0 0 14 3.59q13.55 0 20.26-10.36t6.72-31.8q0-21.33-6-31.79t-18.67-10.46a25.27 25.27 0 0 0-15.18 4.92ZM1464.69 336.47l-59.48 80h60.1l-2.26 14.67h-79v-13l59.9-80h-55.15v-15h75.89Z"/></g></g></svg>
