<svg version="1.1" xmlns="http://www.w3.org/2000/svg" xmlns:xlink="http://www.w3.org/1999/xlink" x="0px" y="0px"
	 width="1465.3px" height="521.5px" viewBox="0 0 1465.3 521.5" style="overflow:visible;enable-background:new 0 0 1465.3 521.5;"
	 xml:space="preserve">
<style type="text/css">
	.st0{fill:#2D132C;}
	.st1{fill:#C72C41;}
	.st2{fill:#DBDBDB;}
</style>
<defs>
</defs>
<g>
	<circle class="st0" cx="260.7" cy="260.7" r="260.7"/>
	<g>
		<rect x="239.8" y="64.1" class="st1" width="40.2" height="393.3"/>
		<rect x="100.2" y="64.1" class="st1" width="40.2" height="202.2"/>
		
			<rect x="130.7" y="114.7" transform="matrix(-4.485497e-11 1 -1 -4.485497e-11 315.9786 14.4494)" class="st1" width="40.2" height="101.1"/>
		
			<rect x="350.6" y="386.7" transform="matrix(-4.485497e-11 1 -1 -4.485497e-11 808.0137 66.5752)" class="st1" width="40.2" height="101.1"/>
	</g>
</g>
<g>
	<path class="st2" d="M607.2,163.4c4.2-5.5,9.3-9.7,15.4-12.6c6.1-2.9,12.5-4.4,19-4.4c10.3,0,18,2.7,22.9,8.2
		c5,5.5,7.4,13.3,7.4,23.6v78.5h-17.2v-78.1c0-6.4-1.5-11.1-4.5-14.2c-3-3-7.7-4.5-14.2-4.5c-5.7,0-11.1,1.8-16.3,5.4
		c-5.2,3.6-9.4,7.8-12.6,12.7v78.7H590V105.3l17.2-1.8V163.4z"/>
	<path class="st2" d="M726.6,208.7c0.3,8.1,1.8,14.8,4.7,20.2c2.9,5.4,6.6,9.3,11.3,11.9c4.6,2.6,9.8,3.8,15.6,3.8
		c5.3,0,10.2-0.8,14.7-2.4c4.5-1.6,9.2-4,14.1-7.4l8.1,11.4c-5.1,4-10.9,7.1-17.4,9.3c-6.5,2.3-13.1,3.4-19.7,3.4
		c-10.3,0-19.2-2.3-26.7-7c-7.5-4.6-13.1-11.2-17-19.7c-3.9-8.5-5.8-18.3-5.8-29.5c0-10.9,1.9-20.6,5.8-29.1
		c3.9-8.5,9.4-15.2,16.5-20.1c7.1-4.8,15.4-7.2,24.8-7.2c9,0,16.8,2.1,23.4,6.4c6.6,4.2,11.7,10.3,15.2,18.3
		c3.5,8,5.3,17.4,5.3,28.3c0,3.1-0.1,6.3-0.4,9.4H726.6z M735.6,169.3c-5.2,5.8-8.2,14.5-8.9,26.1H783c-0.2-11.3-2.7-20-7.5-25.9
		c-4.8-5.9-11.3-8.9-19.6-8.9C747.6,160.5,740.8,163.4,735.6,169.3z"/>
	<path class="st2" d="M913.1,234.6l8.4,11.3c-4.7,4-10.4,7.1-17,9.5c-6.6,2.4-13.1,3.5-19.5,3.5c-10.6,0-19.7-2.3-27.3-6.9
		c-7.6-4.6-13.4-11.1-17.4-19.5c-4-8.4-5.9-18.3-5.9-29.5c0-10.9,2-20.6,6.1-29.2c4-8.6,9.9-15.3,17.5-20.2
		c7.7-4.9,16.8-7.3,27.3-7.3c13.7,0,25.8,4.2,36.1,12.5l-8.4,11.5c-9.3-6.4-18.6-9.6-27.9-9.6c-6.4,0-11.9,1.6-16.7,4.7
		c-4.8,3.1-8.5,7.9-11.2,14.3c-2.7,6.4-4.1,14.2-4.1,23.4c0,13.8,2.9,24.1,8.7,30.9c5.8,6.8,13.6,10.2,23.3,10.2
		C894.6,244.1,904,240.9,913.1,234.6z"/>
	<path class="st2" d="M1051.4,293.8H948.8v-15.1h102.6V293.8z"/>
</g>
<g>
	<path class="st2" d="M1056.5,404.5c0,5.1,1.6,8.8,4.8,11.1c3.2,2.4,7.5,3.5,13.1,3.5c5.8,0,11.9-1.3,18.2-3.8l4.6,12.6
		c-3.3,1.6-7.1,3-11.5,4c-4.4,1-9.1,1.5-14.2,1.5c-6.4,0-12-1.2-16.9-3.6c-4.9-2.4-8.7-5.8-11.3-10.4c-2.7-4.5-4-9.8-4-16V293.3
		h-33.1v-13.6h50.4V404.5z"/>
	<path class="st2" d="M1204,327.7c6.9,4.5,12.1,11,15.6,19.5c3.5,8.4,5.3,18.4,5.3,29.9c0,11.1-1.8,21-5.4,29.4
		c-3.6,8.5-8.9,15.1-15.8,19.8c-7,4.8-15.4,7.1-25.2,7.1c-10,0-18.4-2.3-25.4-6.9c-6.9-4.6-12.2-11.1-15.7-19.5
		c-3.6-8.4-5.3-18.3-5.3-29.7c0-11.2,1.8-21.1,5.4-29.5c3.6-8.5,8.9-15.1,15.9-19.8c7-4.7,15.5-7.1,25.4-7.1
		C1188.6,320.9,1197.1,323.2,1204,327.7z M1157.5,345.3c-4.7,6.9-7.1,17.6-7.1,31.9c0,14.2,2.3,24.7,7,31.6
		c4.6,6.9,11.7,10.4,21,10.4c9.4,0,16.4-3.5,21-10.4c4.6-6.9,7-17.6,7-31.8c0-14.2-2.3-24.8-7-31.7c-4.7-6.9-11.6-10.4-20.8-10.4
		C1169.3,334.9,1162.2,338.4,1157.5,345.3z"/>
	<path class="st2" d="M1338.8,335.5c6.1,9.8,9.2,23.6,9.2,41.5c0,11.1-1.5,20.9-4.6,29.4c-3.1,8.4-7.7,15.1-14,19.8
		c-6.3,4.8-13.9,7.2-23,7.2c-11.9,0-21.4-4.2-28.5-12.5v51.5l-17.2,2.2V323.1h14.7l1.4,15.1c4-5.6,8.7-9.9,14.2-12.9
		c5.5-3,11.5-4.5,18-4.5C1322.7,320.9,1332.7,325.8,1338.8,335.5z M1289.7,339.6c-4.5,3.3-8.5,7.4-11.8,12.4v53.5
		c2.9,4.2,6.4,7.6,10.7,9.9c4.3,2.4,8.9,3.6,14,3.6c9,0,15.8-3.5,20.3-10.4c4.5-6.9,6.7-17.5,6.7-31.8c0-14.2-2-24.8-6.1-31.8
		c-4-7-10.3-10.5-18.7-10.5C1299.3,334.7,1294.2,336.4,1289.7,339.6z"/>
	<path class="st2" d="M1464.7,336.5l-59.5,80h60.1l-2.3,14.7h-79v-13l59.9-80h-55.2v-15h75.9V336.5z"/>
</g>
</svg>
