<svg id="Capa_1" data-name="Capa 1" xmlns="http://www.w3.org/2000/svg" viewBox="0 0 25 15"><g id="Brackets"><polygon points="6.05 5.12 1.07 8.17 6.05 11.29 5.43 12.16 0.07 8.79 0.07 7.55 5.49 4.18 6.05 5.12" style="fill:#f8f8ff"/><polygon points="18.95 5.05 23.93 8.11 18.95 11.22 19.57 12.1 24.93 8.73 24.93 7.48 19.51 4.12 18.95 5.05" style="fill:#f8f8ff"/></g><path d="M14.46,9a1.36,1.36,0,0,0,1.19-.56c.37-.62.43-.75.37-1.06,0,0,0-.31-.62-.12a1.57,1.57,0,0,0-.38.87s.07.12-.06.37A1.69,1.69,0,0,1,14.46,9Z" style="fill:#f8f8ff"/><path d="M15.58,7l.56-2.68a3.58,3.58,0,0,0,.75.12l-.81,2.68S15.65,7.24,15.58,7Z" style="fill:#f8f8ff"/><path d="M15.46,3.62a2.25,2.25,0,0,0,2.12.69V2.5H15.77Z" style="fill:#f8f8ff"/><g id="Dedos_con_espacios" data-name="Dedos con espacios"><path d="M14.57,7.13h0c.26-.52.2-.7.15-.77s-.44,0-.56,0l-.95.7-1,.91a.74.74,0,0,0,.14.65.75.75,0,0,0,.61.09l1-.79Z" style="fill:#f8f8ff"/><path d="M12.58,6.47c.16-.53.08-.7,0-.75s-.56.08-.69.16L11,6.61a.87.87,0,0,1-.16.14c-.16.13-.64.53-.66.66a.67.67,0,0,0,.09.51.47.47,0,0,0,.29.16h0c.47.14,1.23-.58,1.49-.87l.5-.67A.21.21,0,0,0,12.58,6.47Z" style="fill:#f8f8ff"/><path d="M12.17,7.21l-.05.06s-.82.92-1.43.92l-.15,0h0A.5.5,0,0,1,10.18,8a.67.67,0,0,1-.12-.53l-2.48,2v2.13L12,8A.7.7,0,0,0,12.17,7.21Z" style="fill:#f8f8ff"/><path d="M13.93,10.67h-.18a.9.9,0,0,1-.57-.17A.66.66,0,0,1,13,10v0l.2-.21L9.92,12.5h3.44L14.7,11A1.62,1.62,0,0,0,15,9.71l-1,.95Z" style="fill:#f8f8ff"/><path d="M13.61,9.15l.06,0,.2-.17.08,0a1,1,0,0,0,.23-1.11L14,8l-1,.8h0a1.32,1.32,0,0,1-.26,0,.64.64,0,0,1-.43-.14.65.65,0,0,1-.18-.54L7.55,11.86l0,.64h2l3.79-3.16Z" style="fill:#f8f8ff"/><path d="M13.67,9.11A2.09,2.09,0,0,0,14,8.89l-.08,0Z" style="fill:#f8f8ff"/></g><path d="M14.46,9.14l-.27,0L14.41,9a1.54,1.54,0,0,0,.47-.46v0l-.07,0L14,9.11h0l-.9.89a.59.59,0,0,0,.18.43.93.93,0,0,0,.68.13L15.2,9.36a2.83,2.83,0,0,0,.21-.49,1.55,1.55,0,0,1-.88.27Z" style="fill:#f8f8ff"/></svg>